# xmcd CD database file
#
# Track frame offsets:
#	150
#	17878
#	44513
#
# Disc length: 840 seconds
#
# Revision: 0
# Processed by: cddbd v1.5.1PL0 Copyright (c) Steve Scherf et al.
# Submitted via: CDex 1.51
#
DISCID=20034603
DTITLE=THE STRiPES - Loosey
DYEAR=2004
DGENRE=Anime
TTITLE0=Loosey
TTITLE1=OPEN YOUR HEART〜天まで届け THE STRiPES Ver.〜
TTITLE2=Theme of STRiPES
EXTD=YEAR: 2004
EXTT0=
EXTT1=
EXTT2=
PLAYORDER=
